<svg width="127" height="29" viewBox="0 0 127 29" fill="none" xmlns="http://www.w3.org/2000/svg">
<path fill-rule="evenodd" clip-rule="evenodd" d="M20.551 3.25312C21.294 2.58312 21.721 2.13012 21.829 1.89812C21.963 1.57012 22.159 1.40512 22.416 1.40512C22.686 1.40512 22.834 1.65212 22.861 2.14512L23.307 9.30912C23.307 9.71912 23.289 9.96912 23.256 10.0581C23.222 10.1461 23.125 10.1911 22.962 10.1911C22.747 10.1911 22.517 9.89712 22.274 9.30912C21.383 7.12612 20.141 5.34112 18.548 3.95112C16.942 2.56812 15.2 1.87712 13.324 1.87712C11.676 1.87712 10.164 2.41412 8.788 3.48912C7.411 4.56312 6.342 6.09612 5.578 8.08812C4.815 10.0781 4.434 12.2171 4.434 14.5021C4.434 18.3891 5.49 21.5471 7.604 23.9761C9.717 26.4051 12.077 27.6201 14.683 27.6201C16.451 27.6201 18.079 27.0521 19.565 25.9161C21.05 24.7811 22.171 23.4661 22.928 21.9741C23.129 21.5641 23.338 21.3591 23.554 21.3591C23.851 21.3591 24 21.5231 24 21.8521C24 22.2491 23.487 23.1181 22.461 24.4581C21.435 25.8001 20.088 26.8881 18.42 27.7221C16.753 28.5571 14.96 28.9741 13.043 28.9741C10.788 28.9741 8.644 28.3931 6.613 27.2301C4.58 26.0661 2.97 24.4581 1.783 22.4051C0.592 20.3531 0 17.9451 0 15.1801C0 12.4701 0.577 10.0271 1.733 7.85212C2.888 5.67512 4.513 3.98512 6.608 2.78112C8.7 1.57612 10.863 0.974121 13.092 0.974121C14.282 0.974121 15.497 1.16212 16.74 1.53812C17.983 1.91412 19.254 2.48712 20.551 3.25312ZM43.579 13.6931C43.579 15.8701 43.919 18.1031 44.604 20.3931C45.288 22.6841 46.361 24.3461 47.824 25.3821C49.287 26.4171 50.852 26.9341 52.52 26.9341C55.214 26.9341 57.371 25.6541 58.99 23.0971C60.612 20.5411 61.421 17.5791 61.421 14.2141C61.421 10.9561 60.594 8.09412 58.941 5.63012C57.285 3.16612 55.125 1.93412 52.46 1.93412C50.45 1.93412 48.774 2.59212 47.435 3.90712C46.095 5.22412 45.117 6.79512 44.502 8.62512C43.886 10.4551 43.579 12.1451 43.579 13.6931ZM39 14.3441C39 12.5441 39.562 10.5641 40.683 8.41012C41.806 6.25412 43.446 4.47712 45.601 3.07512C47.757 1.67512 50.191 0.975121 52.901 0.975121C56.693 0.975121 59.823 2.29512 62.294 4.93712C64.765 7.57912 66 10.5951 66 13.9841C66 17.5861 64.631 20.8191 61.894 23.6821C59.156 26.5441 55.864 27.9741 52.018 27.9741C48.335 27.9741 45.246 26.7211 42.748 24.2121C40.248 21.7041 39 18.4141 39 14.3441ZM95.778 3.68212C96.15 3.32112 96.398 2.94512 96.523 2.55712C96.633 2.23512 96.792 2.07512 96.999 2.07512C97.109 2.07512 97.233 2.14112 97.372 2.27612C97.469 2.75712 97.606 3.72912 97.785 5.18812L98.282 8.96512C98.282 9.20612 98.13 9.32612 97.826 9.32612C97.662 9.32612 97.516 9.19312 97.392 8.92612C96.661 7.17112 95.578 5.71012 94.142 4.54612C92.708 3.39412 91.142 2.81812 89.444 2.81812C87.774 2.81812 86.516 3.30712 85.667 4.28412C84.818 5.26212 84.394 6.30012 84.394 7.39812C84.394 8.73812 84.857 9.76212 85.781 10.4711C86.706 11.1811 88.61 11.9861 91.493 12.8831C93.618 13.5251 95.209 14.1481 96.264 14.7511C97.32 15.3541 98.207 16.1971 98.924 17.2811C99.641 18.3671 100 19.5321 100 20.7781C100 22.8941 99.096 24.7891 97.288 26.4631C95.481 28.1371 93.266 28.9741 90.645 28.9741C88.285 28.9741 85.912 28.2581 83.525 26.8241C83.055 27.1991 82.752 27.6421 82.615 28.1501C82.505 28.5791 82.325 28.7941 82.076 28.7941C81.856 28.7941 81.697 28.5181 81.6 27.9701C81.504 27.4201 81.304 24.8221 81 20.1751C81.055 20.0151 81.2 19.9351 81.434 19.9351C81.642 19.9351 81.808 20.0821 81.931 20.3751C84.057 25.5591 87.022 28.1501 90.831 28.1501C92.721 28.1501 94.201 27.5981 95.271 26.4931C96.341 25.3881 96.875 24.1191 96.875 22.6861C96.875 21.6961 96.588 20.7851 96.015 19.9541C95.443 19.1241 94.684 18.4541 93.74 17.9441C92.794 17.4361 91.3 16.8671 89.258 16.2371C86.636 15.4201 84.854 14.6471 83.908 13.9171C82.963 13.1871 82.269 12.3641 81.828 11.4471C81.386 10.5291 81.166 9.64212 81.166 8.78512C81.166 7.00312 81.997 5.42212 83.66 4.04312C85.322 2.66312 87.362 1.97412 89.775 1.97412C90.687 1.97412 91.642 2.11412 92.642 2.39612C93.643 2.67712 94.687 3.10612 95.778 3.68212ZM116.434 0.974121L120.197 1.05612L125.967 0.974121C126.656 0.974121 127 1.11012 127 1.38412C127 1.58712 126.814 1.71712 126.442 1.77112C124.916 1.96112 123.962 2.50612 123.585 3.40512C123.207 4.30312 123.016 7.62612 123.016 13.3721C123.016 15.4821 123.072 17.8581 123.182 20.5001C123.292 23.1401 123.416 24.7201 123.552 25.2381C123.692 25.7551 123.952 26.1771 124.337 26.5041C124.723 26.8311 125.438 27.0621 126.485 27.1981C126.829 27.2381 127 27.3681 127 27.5861C127 27.8311 126.841 27.9551 126.524 27.9551L121.396 27.9141L117.033 27.9741C116.551 27.9741 116.31 27.8381 116.31 27.5661C116.31 27.2811 116.503 27.1381 116.888 27.1381C118.168 27.1101 118.916 26.6881 119.138 25.8711C119.357 25.0541 119.468 22.4461 119.468 18.0481C119.468 13.8001 119.43 10.3621 119.353 7.73412C119.278 5.10712 119.053 3.50012 118.683 2.91412C118.312 2.32912 117.61 1.96212 116.578 1.81212C116.193 1.74312 116 1.58712 116 1.34212C116 1.09612 116.144 0.974121 116.434 0.974121Z" fill="#003D4D"/>
</svg>
