<svg width="36" height="36" viewBox="0 0 36 36" fill="none" xmlns="http://www.w3.org/2000/svg">
<g clip-path="url(#clip0)">
<path d="M35.6488 4.45185C36.1976 2.80568 36.0896 1.53731 35.343 0.646756C34.4524 -0.108867 33.1841 -0.207817 31.5379 0.340909C29.8917 0.889634 28.4254 1.81617 27.1211 3.11152L23.0101 7.22247L5.93668 3.14751C5.66682 3.05755 5.40595 3.12951 5.16307 3.3544L1.87971 6.63776C1.69081 6.82667 1.60985 7.06055 1.64583 7.33041C1.6998 7.60028 1.84373 7.80718 2.08661 7.9511L15.1301 15.1205L8.47342 21.7682L3.48991 20.4099C3.45393 20.3919 3.39096 20.3829 3.28301 20.3829C3.04013 20.3829 2.84223 20.4638 2.68931 20.6168L0.233536 23.0995C0.062621 23.3064 -0.0183385 23.5223 -0.000347497 23.7382C0.0356345 24.0081 0.143581 24.206 0.332486 24.3319L6.80025 29.1895L11.6578 35.6572C11.8107 35.8462 12.0176 35.9541 12.2785 35.9901H12.3325C12.5754 35.9901 12.7733 35.9091 12.9262 35.7562L15.391 33.2914C15.6158 33.0486 15.6788 32.7877 15.5979 32.4908L14.2395 27.5073L20.8872 20.8507L28.0566 33.8941C28.1556 34.119 28.3355 34.254 28.5964 34.3079C28.6503 34.3259 28.7043 34.3349 28.7763 34.3349C28.9832 34.3349 29.1451 34.2809 29.262 34.182L32.5544 31.7172C32.8422 31.4743 32.9502 31.1955 32.8602 30.8716L28.7493 12.9976L32.8872 8.85965C34.1736 7.57329 35.1001 6.09803 35.6488 4.45185Z" fill="url(#paint0_linear)"/>
</g>
<defs>
<linearGradient id="paint0_linear" x1="-0.000339111" y1="17.997" x2="35.9956" y2="17.997" gradientUnits="userSpaceOnUse">
<stop stop-color="#1245C6"/>
<stop offset="1" stop-color="#9909B7"/>
</linearGradient>
<clipPath id="clip0">
<rect width="36" height="36" fill="white"/>
</clipPath>
</defs>
</svg>
